<svg xmlns="http://www.w3.org/2000/svg" viewBox="0 0 171.41 65.26"><defs><style>.cls-1{fill:#ccc;}</style></defs><title>资源 9</title><g id="图层_2" data-name="图层 2"><g id="图层_1-2" data-name="图层 1"><path class="cls-1" d="M53.78,46.77V43.44h4.14v3.33h.46V49h-.46V65.26H53.78V49h-.92V61.47c.08,1.3-.53,1.92-1.83,1.84H49.88V43.44h3v3.33Zm22.63-3.33v2.18H59V43.44Zm0,3.33V60c.23,1.61-.5,2.33-2.18,2.18H59V46.77Zm0,16.54v2H59v-2ZM63.89,49v2.76h7.58V49Zm6.44,11c1,.15,1.37-.23,1.14-1.15V53.89H63.89V60Z"/><path class="cls-1" d="M95.35,56.65c.23,1.6-.49,2.33-2.18,2.18H88.81V56.65H90c.84.15,1.18-.23,1-1.15v-4l-2.18.46v-2.3L91,49.07v-2.3H88.81V44.59H91V43.44h4.36v1.15H96.5v2.18H95.35v1.38l1.15-.35v2.41l-1.15.23Zm-.57,2.75-1,5.86H88.81l1-5.86Zm1.61,0h4.94l1.15,5.86H97.42Zm10-16-.23,1.15h9.08V58.83h-2.76c-1.53.08-2.26-.65-2.18-2.18V46.77h-4.71l-.69,2.75,4.25.92v2.3l-4.83-1-1.72,7.12H97.65l2-8.16-2-.46V47.8l2.53.58.46-1.61h-3V44.59h3.56l.23-1.15Zm1.38,16,1.15,5.86h-5l-1-5.86Zm1.38,0h4.94l1.15,5.86h-4.94Z"/><path class="cls-1" d="M19.7,35.75c-7.87.68-11.81,1.06-19.7,1.93V0C7.81.94,11.71,1.36,19.49,2.09c0,3.15,0,4.72,0,7.87-4.63-.24-6.95-.37-11.59-.65,0,2,0,3,0,5.08l9.78.29c0,3.18,0,4.77,0,8l-9.75.16c0,2.27,0,3.4,0,5.67,4.77-.25,7.16-.36,11.92-.57C19.72,31,19.71,32.61,19.7,35.75Z"/><path class="cls-1" d="M29.92,35q-4-16.31-7.86-32.63c3.14.29,4.71.42,7.85.67,1.58,8.61,2.36,12.83,3.93,21.12,1.76-8.36,2.64-12.45,4.41-20.5,3.14.21,4.7.31,7.82.48q-4.4,15.12-8.5,30.34C34.51,34.62,33,34.72,29.92,35Z"/><path class="cls-1" d="M68.53,33.1c-7.84.18-11.76.32-19.61.7l.35-29.53c7.74.41,11.59.56,19.29.75l-.1,6.57c-4.58-.07-6.88-.11-11.47-.22l-.06,4.08,9.69.09c0,2.64-.06,3.95-.09,6.59l-9.69.05c0,1.82,0,2.73-.06,4.55,4.74-.09,7.11-.13,11.85-.19Z"/><path class="cls-1" d="M82,23.29H79.74l-.15,9.64c-3,0-4.58,0-7.63.1.17-11.16.26-16.75.42-27.92,4.44.09,6.65.12,11.07.14,7.12-.17,10.43,2.43,10.16,7.8-.19,3.67-1.49,6-4,6.78q4.31,1.05,4,7.38c0,.3-.1.73-.15,1.21-.29,2.51.15,3.91.83,3.62,0,.36,0,.54,0,.9-3.1,0-4.65,0-7.74,0a13.52,13.52,0,0,1-.31-4.81C86.35,24.74,85.16,23,82,23.29ZM79.92,11.7l-.09,5.42h3c2.46.11,3.74-.79,3.73-2.55s-1.1-2.75-3.13-2.86Z"/><path class="cls-1" d="M105.09,33.14c-3-.08-4.56-.11-7.6-.16.17-11.12.25-16.69.42-27.82,3,0,4.56-.08,7.6-.17-.06,3.8-.09,5.69-.14,9.49l7.2-.09c.06-3.85.08-5.78.14-9.63,3.08-.12,4.62-.19,7.69-.34L120,33.65c-3.09-.14-4.64-.2-7.73-.3.07-4.41.1-6.62.16-11l-7.22,0C105.19,26.62,105.16,28.79,105.09,33.14Z"/><path class="cls-1" d="M135.89,2.65c7.09-.59,12,5.57,12.05,16.12S143.07,35.51,135.59,35s-12.12-6.53-12-16.3C123.79,9.35,128.63,3.24,135.89,2.65Zm-.07,7.58c-2.7.17-4.52,3.33-4.62,8.61-.1,5.61,1.56,8.76,4.45,8.92s4.79-3,4.75-9C140.36,13.23,138.49,10.07,135.82,10.23Z"/><path class="cls-1" d="M150.25,11l.05-8.68C158.76,1.51,163,1.05,171.41,0V9.83c-2.7.17-4,.25-6.75.4l0,26.72c-3.07-.32-4.61-.47-7.69-.76l.1-25.54C154.31,10.79,153,10.86,150.25,11Z"/></g></g></svg>